<?xml version="1.0" standalone="no"?>
<!DOCTYPE svg PUBLIC "-//W3C//DTD SVG 20010904//EN"
 "http://www.w3.org/TR/2001/REC-SVG-20010904/DTD/svg10.dtd">
<svg version="1.0" xmlns="http://www.w3.org/2000/svg"
 width="352.000000pt" height="524.000000pt" viewBox="0 0 352.000000 524.000000"
 preserveAspectRatio="xMidYMid meet">

<g transform="translate(0.000000,524.000000) scale(0.100000,-0.100000)"
fill="#000000" stroke="none">
<path d="M1721 5213 c-12 -16 -31 -41 -44 -57 -39 -52 -96 -86 -142 -86 -60 0
-103 18 -120 49 -7 15 -21 33 -29 41 -23 19 -112 14 -192 -11 -61 -19 -256
-108 -309 -142 -49 -31 -236 -166 -287 -207 -130 -104 -282 -160 -438 -160
-61 0 -91 -4 -99 -13 -7 -10 -10 -127 -10 -388 1 -326 3 -377 18 -399 14 -22
16 -122 18 -990 1 -531 -1 -1043 -4 -1138 -6 -171 -6 -173 -33 -200 -50 -50
-50 -53 -50 -359 0 -312 8 -379 55 -459 54 -91 158 -155 310 -188 44 -9 105
-24 135 -32 30 -8 75 -18 100 -23 95 -18 312 -77 495 -135 44 -14 91 -26 104
-26 23 0 150 -48 252 -95 109 -50 219 -118 275 -170 33 -31 39 -31 68 -2 77
77 385 239 498 262 18 4 56 13 83 21 313 90 402 114 416 114 9 0 39 6 65 14
27 8 90 24 139 35 271 61 305 71 369 115 68 46 126 135 145 224 7 32 11 168
11 350 l0 297 -42 44 -42 44 -4 1143 c-4 1009 -2 1144 11 1144 8 0 17 11 21
23 7 30 7 742 0 761 -4 10 -36 16 -122 21 -204 12 -297 53 -577 254 -66 47
-122 88 -125 91 -28 29 -223 135 -297 161 -68 24 -163 40 -193 32 -11 -3 -28
-19 -36 -35 -20 -39 -70 -68 -119 -68 -58 0 -120 43 -184 128 -38 49 -61 53
-90 15z"/>
</g>
</svg>
